<svg xmlns="http://www.w3.org/2000/svg" xmlns:xlink="http://www.w3.org/1999/xlink" viewBox="0 0 3967.75 988.2"><defs><style>.cls-1{fill:#6ebd44;}.cls-2{fill:url(#linear-gradient);}.cls-3{fill:url(#linear-gradient-2);}.cls-4{fill:url(#linear-gradient-3);}.cls-5{fill:url(#linear-gradient-4);}.cls-6{fill:url(#linear-gradient-5);}.cls-7{fill:url(#linear-gradient-6);}</style><linearGradient id="linear-gradient" x1="3490.92" y1="513.5" x2="2896.41" y2="458.46" gradientTransform="matrix(1, 0, 0, -1, 0, 988.39)" gradientUnits="userSpaceOnUse"><stop offset="0" stop-color="#15733b"/><stop offset="0.5" stop-color="#57b748"/><stop offset="1" stop-color="#a0cb3a"/></linearGradient><linearGradient id="linear-gradient-2" x1="3582.22" y1="1210.95" x2="3540.94" y2="699.01" xlink:href="#linear-gradient"/><linearGradient id="linear-gradient-3" x1="3519.84" y1="722.34" x2="3512.5" y2="436.1" xlink:href="#linear-gradient"/><linearGradient id="linear-gradient-4" x1="3587.59" y1="251.57" x2="3572.91" y2="7.53" xlink:href="#linear-gradient"/><linearGradient id="linear-gradient-5" x1="3341.63" y1="266.37" x2="3326.95" y2="22.33" xlink:href="#linear-gradient"/><linearGradient id="linear-gradient-6" x1="4163.66" y1="385.3" x2="3598.51" y2="425.66" xlink:href="#linear-gradient"/></defs><title>Asset 1</title><g id="Layer_2" data-name="Layer 2"><g id="Layer_1-2" data-name="Layer 1"><path class="cls-1" d="M419.41,801.92v100.6H0V360.85H409.35V461.44H124.59V579.06H376.08v97.5H124.59V801.92Z"/><path class="cls-1" d="M476.66,360.85H722.74q88.21,0,155.92,33.66T983.9,489.3q37.51,61.14,37.53,142.38T983.9,774.06q-37.54,61.14-105.24,94.8T722.74,902.52H476.66ZM716.55,799.6q81.24,0,129.61-45.27t48.36-122.65q0-77.37-48.36-122.65T716.55,463.77H602V799.6Z"/><path class="cls-1" d="M1078.68,360.85H1204V902.52H1078.68Z"/><path class="cls-1" d="M1356.08,894.39q-60-17.42-96.34-45.27l42.56-94.4q34.83,25.53,82.8,41a310.57,310.57,0,0,0,96,15.48q53.4,0,78.93-15.87t25.54-42.17q0-19.33-15.09-32.11t-38.69-20.51q-23.61-7.72-63.84-17-61.92-14.7-101.37-29.41a164.6,164.6,0,0,1-67.71-47.2q-28.26-32.5-28.24-86.67,0-47.19,25.53-85.5t77-60.75q51.45-22.42,125.74-22.44a417.19,417.19,0,0,1,101.36,12.37q49.51,12.39,86.67,35.6l-38.67,95.18q-75.07-42.56-150.12-42.56-52.63,0-77.77,17t-25.11,44.9q0,27.86,29,41.4t88.6,26.7q61.9,14.7,101.37,29.4A168.18,168.18,0,0,1,1681.86,658q28.23,31.74,28.24,85.9a147.92,147.92,0,0,1-25.89,84.72q-25.93,38.29-77.77,60.74T1480.31,911.8A442.79,442.79,0,0,1,1356.08,894.39Z"/><path class="cls-1" d="M2123.69,384.84q53,24,81.64,68.09T2234,557.4q0,59.6-28.63,104.07t-81.64,68.1q-53,23.61-125,23.6h-109.1V902.52H1764.26V360.85h234.46Q2070.69,360.85,2123.69,384.84Zm-46,241.81q29.4-24.37,29.41-69.25,0-45.66-29.41-70T1991.76,463H1889.62V651h102.14q56.44,0,85.89-24.35Z"/><path class="cls-1" d="M2398.39,875.43q-67.71-36.36-106-100.21t-38.3-143.54q0-79.68,38.3-143.54t106-100.21q67.71-36.36,152.06-36.37t151.66,36.37q67.33,36.39,106,100.21t38.69,143.54q0,79.71-38.69,143.54t-106,100.21q-67.32,36.39-151.66,36.37T2398.39,875.43ZM2637.11,783a158.24,158.24,0,0,0,60.75-61.52q22-39.45,22-89.76t-22-89.76a158.31,158.31,0,0,0-60.75-61.52q-38.7-22-86.66-22t-86.67,22A158.22,158.22,0,0,0,2403,542Q2381,581.42,2381,631.72T2403,721.48A158.15,158.15,0,0,0,2463.78,783q38.68,22,86.67,22T2637.11,783Z"/><path class="cls-2" d="M2791,280s82.36,17.29,153,155.89c66.59,130.71,68.14,272.18,289.11,308.76S3621,661.57,3621,661.57s-152.49,72.71-316.46-61.25C3131,458.47,3185.49,209.16,2791,280Z"/><path class="cls-3" d="M3849.69,247l-16.4,6.58-19-47.18-22,8.89-10.68,4.33,19,47.18-16.4,6.58-19-47.18-8.19,3.24-16.48-41a43.69,43.69,0,0,1,.39-33.8,44.34,44.34,0,0,1,12-16.32h0a268.1,268.1,0,0,0-216.1-109.21c-131,0-239.92,93.74-263.59,217.8h-.78v.31l-34.57,13.92C3255.77,114,3381.06,0,3533,0a296.91,296.91,0,0,1,244.41,127.93,44.24,44.24,0,0,1,44.94,27.53l16.47,41-8.27,3.32Z"/><path class="cls-4" d="M3830,315.87c-.16,3.25-.47,6.5-.77,9.75C3815,476.75,3687.81,594.93,3533,594.93c-110.6,0-207.12-60.4-258.4-150a44,44,0,0,1-40.53-27.68l-16.47-41,8.27-3.32-19-47.18,16.4-6.58,19,47.18L3275,353.2,3256,306l16.39-6.57,19,47.18,8.2-3.25,16.47,41a43.73,43.73,0,0,1-.38,33.8,45.71,45.71,0,0,1-10.6,15.16A268.15,268.15,0,0,0,3536.76,566c138.44,0,252.37-104.81,266.83-239.38h0Z"/><path class="cls-5" d="M3626.76,944.35c-13,32-46.1,48.57-73.94,37.13-25.21-10.37-37.51-40.3-29.86-69.61a82,82,0,0,1,2.94-8.9c13-31.94,46.1-48.57,73.94-37.12A50.43,50.43,0,0,1,3626,891.06C3633.41,906.38,3634.26,925.94,3626.76,944.35Z"/><path class="cls-6" d="M3379.72,947.46c-13,31.94-46.09,48.57-73.94,37.12S3266,938,3278.94,906a68.38,68.38,0,0,1,17.56-25.21c15.86-14.39,37.36-19.65,56.38-11.84,15.63,6.42,26.22,20.27,30.25,36.9A68.34,68.34,0,0,1,3379.72,947.46Z"/><path class="cls-7" d="M3935.6,237c-29.09,311.46-291.21,555.17-610.25,555.17a612.11,612.11,0,0,1-192.51-30.86,490.21,490.21,0,0,0,149.83,101.16c21.43-21,51.56-29.22,78.12-18.3,15.75,6.53,27.77,18.65,35,33.78a79.58,79.58,0,0,1,6.34,18.93,496.9,496.9,0,0,0,75.1,5.74q14.47,0,28.75-.82c.82-2.64,1.74-5.29,2.77-7.89,17.41-42.79,61.75-65.07,99.05-49.74A67,67,0,0,1,3641,874.5c190.31-67.38,326.71-249,326.71-462.47A487.7,487.7,0,0,0,3935.6,237Z"/></g></g></svg>