<svg xmlns="http://www.w3.org/2000/svg" viewBox="0 0 3967.73 988.21"><defs><style>.cls-1{fill:#fff;}</style></defs><title>Asset 1</title><g id="Layer_2" data-name="Layer 2"><g id="Layer_1-2" data-name="Layer 1"><path class="cls-1" d="M419.41,801.93V902.52H0V360.85H409.35v100.6H124.59V579.07H376.08v97.5H124.59V801.93Z"/><path class="cls-1" d="M476.66,360.85H722.74q88.21,0,155.92,33.66t105.24,94.8q37.51,61.12,37.53,142.38T983.9,774.07q-37.54,61.14-105.24,94.79T722.74,902.52H476.66ZM716.55,799.64q81.24,0,129.61-45.26t48.36-122.65q0-77.37-48.36-122.65T716.55,463.77H602V799.64Z"/><path class="cls-1" d="M1078.68,360.85H1204V902.52H1078.68Z"/><path class="cls-1" d="M1356.08,894.4q-60-17.42-96.34-45.27l42.56-94.41q34.83,25.54,82.8,41a310.56,310.56,0,0,0,96,15.47q53.4,0,78.93-15.86t25.54-42.17q0-19.33-15.09-32.12t-38.69-20.5q-23.61-7.72-63.84-17-61.92-14.68-101.37-29.4a164.75,164.75,0,0,1-67.71-47.2q-28.26-32.51-28.24-86.67,0-47.19,25.53-85.51t77-60.74q51.45-22.44,125.74-22.44A416.7,416.7,0,0,1,1600.21,364q49.51,12.39,86.67,35.59l-38.67,95.18q-75.07-42.54-150.12-42.56-52.63,0-77.77,17t-25.11,44.91q0,27.85,29,41.4t88.6,26.69q61.9,14.72,101.37,29.41A168,168,0,0,1,1681.89,658q28.23,31.74,28.24,85.89a147.87,147.87,0,0,1-25.92,84.75q-25.93,38.31-77.77,60.75t-126.13,22.44A443.17,443.17,0,0,1,1356.08,894.4Z"/><path class="cls-1" d="M2123.69,384.84q53,24,81.64,68.1T2234,557.4q0,59.6-28.63,104.08t-81.64,68.1q-53,23.61-125,23.6h-109.1V902.52H1764.26V360.85h234.46Q2070.69,360.85,2123.69,384.84Zm-46,241.82q29.4-24.37,29.41-69.26,0-45.64-29.41-70T1991.8,463H1889.62V651h102.14q56.44,0,85.89-24.39Z"/><path class="cls-1" d="M2398.39,875.44q-67.71-36.36-106-100.21t-38.3-143.54q0-79.7,38.3-143.54t106-100.21q67.71-36.36,152.06-36.37t151.66,36.37q67.33,36.38,106,100.21t38.69,143.54q0,79.71-38.69,143.54t-106,100.21q-67.32,36.38-151.66,36.37T2398.39,875.44ZM2637.11,783a158.24,158.24,0,0,0,60.75-61.52q22-39.47,22-89.76t-22-89.76a158.24,158.24,0,0,0-60.75-61.52q-38.7-22-86.66-22.06t-86.67,22.06A158.15,158.15,0,0,0,2403,541.93Q2381,581.4,2381,631.69T2403,721.45A158.15,158.15,0,0,0,2463.78,783q38.68,22,86.67,22t86.66-22Z"/><path class="cls-1" d="M2791,280s82.36,17.28,153,155.88c66.57,130.75,68.12,272.18,289.09,308.75S3621,661.56,3621,661.56s-152.49,72.72-316.46-61.24C3131,458.48,3185.49,209.16,2791,280Z"/><path class="cls-1" d="M3849.69,247l-16.4,6.57-19-47.18-22,8.9-10.74,4.38,19,47.18-16.34,6.52-19-47.18-8.19,3.25-16.48-41a43.69,43.69,0,0,1,.39-33.8,44.23,44.23,0,0,1,12-16.32h0a268.1,268.1,0,0,0-216.1-109.21c-131,0-239.92,93.74-263.59,217.8h-.78v.31l-34.57,13.92C3255.84,114,3381.13,0,3533.11,0a297,297,0,0,1,244.41,127.92,44.23,44.23,0,0,1,44.94,27.54l16.47,41-8.27,3.33Z"/><path class="cls-1" d="M3830,315.88c-.16,3.25-.47,6.5-.77,9.75C3815,476.76,3687.81,594.94,3533,594.94c-110.6,0-207.12-60.41-258.4-150a44,44,0,0,1-40.53-27.69l-16.47-41,8.27-3.33-19-47.18,16.4-6.57,19,47.18L3275,353.2,3256,306l16.39-6.57,19,47.18,8.2-3.25,16.47,41a43.73,43.73,0,0,1-.38,33.8,45.71,45.71,0,0,1-10.6,15.16,268.13,268.13,0,0,0,231.65,132.72c138.44,0,252.37-104.8,266.83-239.38h0Z"/><path class="cls-1" d="M3626.76,944.36c-13,31.94-46.1,48.57-73.94,37.12-25.21-10.36-37.51-40.29-29.86-69.61a81.14,81.14,0,0,1,2.94-8.89c13-31.94,46.1-48.57,73.94-37.13A50.52,50.52,0,0,1,3626,891.07C3633.41,906.38,3634.26,926,3626.76,944.36Z"/><path class="cls-1" d="M3379.72,947.46c-13,32-46.09,48.57-73.94,37.13S3266,938,3278.94,906a68.5,68.5,0,0,1,17.56-25.22c15.86-14.38,37.36-19.64,56.38-11.83,15.63,6.42,26.22,20.26,30.25,36.89A68.34,68.34,0,0,1,3379.72,947.46Z"/><path class="cls-1" d="M3935.6,237c-29.09,311.47-291.21,555.18-610.25,555.18a612.11,612.11,0,0,1-192.51-30.86,490.38,490.38,0,0,0,149.83,101.16c21.43-21.06,51.56-29.22,78.12-18.3,15.75,6.53,27.77,18.65,35,33.78a79.58,79.58,0,0,1,6.34,18.93,496.61,496.61,0,0,0,75.08,5.71q14.48,0,28.75-.81c.82-2.64,1.74-5.29,2.77-7.9,17.41-42.79,61.75-65.07,99.05-49.73A67,67,0,0,1,3641,874.52c190.31-67.37,326.71-249,326.71-462.47A488,488,0,0,0,3935.6,237Z"/></g></g></svg>