<svg id="Layer_1" data-name="Layer 1" xmlns="http://www.w3.org/2000/svg" xmlns:xlink="http://www.w3.org/1999/xlink" viewBox="0 0 1098.24 1098.24"><defs><style>.cls-1{fill:url(#linear-gradient);}.cls-2{fill:url(#linear-gradient-2);}.cls-3{fill:url(#linear-gradient-3);}.cls-4{fill:url(#linear-gradient-4);}.cls-5{fill:url(#linear-gradient-5);}.cls-6{fill:url(#linear-gradient-6);}</style><linearGradient id="linear-gradient" x1="724.21" y1="631.18" x2="175.48" y2="606.4" gradientUnits="userSpaceOnUse"><stop offset="0" stop-color="#15733b"/><stop offset="0.5" stop-color="#57b748"/><stop offset="1" stop-color="#a0cb3a"/></linearGradient><linearGradient id="linear-gradient-2" x1="1152.63" y1="694.86" x2="787.98" y2="684.24" xlink:href="#linear-gradient"/><linearGradient id="linear-gradient-3" x1="1143.35" y1="1013.44" x2="778.7" y2="1002.82" xlink:href="#linear-gradient"/><linearGradient id="linear-gradient-4" x1="1143.14" y1="1020.73" x2="778.49" y2="1010.11" xlink:href="#linear-gradient"/><linearGradient id="linear-gradient-5" x1="1074.01" y1="257.77" x2="550.05" y2="572.85" xlink:href="#linear-gradient"/><linearGradient id="linear-gradient-6" x1="1018.88" y1="193.59" x2="710.88" y2="298.03" xlink:href="#linear-gradient"/></defs><path class="cls-1" d="M20.26,398.87S94.76,414.77,158,538.94c59.69,117.17,39.12,258.85,260.08,284,198,32.82,371.38-86.63,371.38-86.63S598.29,811,451.27,691C295.77,563.83,306.8,360.6,20.26,398.87Z"/><path class="cls-2" d="M1049.19,390.73c-26.08,279.07-261,497.58-546.93,497.58a548.81,548.81,0,0,1-172.57-27.66c31.73,30.32,80.81,60.43,138.72,83a100.14,100.14,0,0,1,20.79-19.91c14.82-10.49,31.57-16,48.45-16h0a72.6,72.6,0,0,1,39.4,11.53c19.85,12.75,32.67,34.31,35.67,59.69a458,458,0,0,0,86,.94,106.81,106.81,0,0,1,6.2-18.43,108.45,108.45,0,0,1,6-11.73l0-.06,0-.06c17.4-29.1,47-47.18,77.26-47.18h0a72.9,72.9,0,0,1,40.67,12.28l.06,0,.06,0a75.92,75.92,0,0,1,19.77,19.67C982,861.94,1078,713.47,1078,547.64A438.57,438.57,0,0,0,1049.19,390.73Z"/><path class="cls-3" d="M788.24,937.43a46.37,46.37,0,0,1,26.06,7.84c10.77,7.29,18,18.48,21.34,31.54,4.39,17.68,1.57,38.7-9.43,57.08-13.11,21.94-34.38,34.39-54.72,34.39a46.4,46.4,0,0,1-26.07-7.84c-23.27-15.54-29.76-49.72-16.51-79.65a81.78,81.78,0,0,1,4.61-9c13.11-21.93,34.38-34.38,54.72-34.38"/><path class="cls-4" d="M537.82,937.43a46.37,46.37,0,0,1,26.06,7.84c10.77,7.29,18,18.48,21.34,31.54,4.4,17.68,1.57,38.7-9.43,57.08-13.11,21.94-34.38,34.39-54.72,34.39a46.42,46.42,0,0,1-26.07-7.84c-23.27-15.54-29.76-49.72-16.51-79.65a85.43,85.43,0,0,1,4.61-9c13.11-21.93,34.38-34.38,54.72-34.38"/><path class="cls-5" d="M400.94,496.88l-16.23,7.53c17.65,42.1,32.19,106.59,86.15,99.49C628,793.17,910.28,714.33,978.41,458.47c0,0-44.24,57.85-99,63.48-8.09,20.64-37.57,58.5-61.46,79.46-87.18,79.37-229.27,73.14-312-14.59,33.48-36.83,3.28-94.83-11.32-133.4L478.42,461l-26.84-66.33c-2.75-6.79-10-10-16.23-7.07s-9,10.72-6.28,17.51l26.85,66.33-32.47,15.06-26.84-66.34c-2.75-6.79-10-9.95-16.23-7.07s-9,10.72-6.28,17.51Z"/><path class="cls-6" d="M950.51,329.24l16.23-7.53c-17.64-42.1-32.18-106.59-86.14-99.49C723.45,33,441.18,111.79,373.05,367.65c0,0,37.58-41.39,92.29-47,7.7-32.16,44.23-75,68.13-95.93,87.18-79.37,229.26-73.14,312,14.59-33.48,36.82-3.28,94.83,11.33,133.39L873,365.17l26.84,66.33c2.75,6.79,10,10,16.23,7.07s9-10.72,6.28-17.51l-26.84-66.33L928,339.67,954.85,406c2.74,6.78,10,9.95,16.22,7.07s9-10.72,6.28-17.51Z"/></svg>