<svg id="Layer_1" data-name="Layer 1" xmlns="http://www.w3.org/2000/svg" xmlns:xlink="http://www.w3.org/1999/xlink" viewBox="0 0 4902.41 1288.2"><defs><style>.cls-1{fill:url(#linear-gradient);}.cls-2{fill:url(#linear-gradient-2);}.cls-3{fill:url(#linear-gradient-3);}.cls-4{fill:url(#linear-gradient-4);}.cls-5{fill:url(#linear-gradient-5);}.cls-6{fill:url(#linear-gradient-6);}.cls-7{fill:url(#linear-gradient-7);}.cls-8{fill:url(#linear-gradient-8);}.cls-9{fill:url(#linear-gradient-9);}.cls-10{fill:url(#linear-gradient-10);}.cls-11{fill:url(#linear-gradient-11);}.cls-12{fill:url(#linear-gradient-12);}</style><linearGradient id="linear-gradient" x1="5127.95" y1="-588.31" x2="1524.73" y2="693.95" gradientUnits="userSpaceOnUse"><stop offset="0" stop-color="#15733b"/><stop offset="0.5" stop-color="#57b748"/><stop offset="1" stop-color="#a0cb3a"/></linearGradient><linearGradient id="linear-gradient-2" x1="5214.64" y1="-344.71" x2="1611.42" y2="937.55" xlink:href="#linear-gradient"/><linearGradient id="linear-gradient-3" x1="5238.19" y1="-278.55" x2="1634.97" y2="1003.71" xlink:href="#linear-gradient"/><linearGradient id="linear-gradient-4" x1="5320.19" y1="-48.12" x2="1716.97" y2="1234.14" xlink:href="#linear-gradient"/><linearGradient id="linear-gradient-5" x1="5393.56" y1="158.05" x2="1790.34" y2="1440.31" xlink:href="#linear-gradient"/><linearGradient id="linear-gradient-6" x1="5459.61" y1="343.68" x2="1856.39" y2="1625.93" xlink:href="#linear-gradient"/><linearGradient id="linear-gradient-7" x1="847.65" y1="684.74" x2="278.99" y2="659.06" xlink:href="#linear-gradient"/><linearGradient id="linear-gradient-8" x1="1291.62" y1="750.73" x2="913.74" y2="739.73" xlink:href="#linear-gradient"/><linearGradient id="linear-gradient-9" x1="1282.01" y1="1080.88" x2="904.12" y2="1069.88" xlink:href="#linear-gradient"/><linearGradient id="linear-gradient-10" x1="1281.79" y1="1088.43" x2="903.9" y2="1077.43" xlink:href="#linear-gradient"/><linearGradient id="linear-gradient-11" x1="1210.15" y1="297.77" x2="667.17" y2="624.29" xlink:href="#linear-gradient"/><linearGradient id="linear-gradient-12" x1="1153.01" y1="231.26" x2="833.83" y2="339.49" xlink:href="#linear-gradient"/></defs><path class="cls-1" d="M2008.05,845.2V978H1454.39V262.94h540.38v132.8H1618.85V551h332V679.72h-332V845.2Z"/><path class="cls-2" d="M2642.4,220V978H2490.2V914.67q-59.26,71.51-171.62,71.5-77.64,0-140.45-34.73t-98.58-99.09Q2043.77,788,2043.8,703.21t35.75-149.14q35.74-64.35,98.58-99.09t140.45-34.73q105.21,0,164.47,66.4V220Zm-196.13,594q39.84-41.38,39.84-110.84t-39.84-110.83Q2406.43,551,2346.17,551q-61.3,0-101.13,41.37T2205.2,703.21q0,69.48,39.84,110.84t101.13,41.37Q2406.43,855.42,2446.27,814.05Z"/><path class="cls-3" d="M2736.37,326.27q-27.59-25.51-27.58-63.33t27.58-63.34q27.59-25.51,71.5-25.53t71.51,24.51Q2907,223.11,2907,259.87q0,39.84-27.58,65.89t-71.51,26.05Q2764,351.81,2736.37,326.27Zm-8.17,102.15h159.35V978H2728.2Z"/><path class="cls-4" d="M3058.14,969.32q-65.38-16.86-104.19-42.4l53.12-114.41q36.76,23.52,88.87,38.31t102.15,14.81q101.13,0,101.13-50,0-23.49-27.58-33.71t-84.79-17.37q-67.41-10.2-111.34-23.49a172.69,172.69,0,0,1-76.11-47q-32.18-33.72-32.17-96,0-52.11,30.13-92.45t87.85-62.82q57.7-22.47,136.37-22.48a535.53,535.53,0,0,1,116,12.77q57.69,12.78,95.51,35.24l-53.12,113.39q-72.54-40.85-158.34-40.86-51.09,0-76.61,14.3t-25.54,36.78q0,25.54,27.58,35.75T3234.86,647q67.42,11.25,110.33,24t74.57,46.48q31.65,33.72,31.66,94,0,51.09-30.64,90.92t-89.38,61.8q-58.76,21.94-139.44,22A534.14,534.14,0,0,1,3058.14,969.32Z"/><path class="cls-5" d="M3967.79,455.49q62.82,35.25,98.58,99.09t35.75,148.63q0,84.81-35.75,148.63t-98.58,99.09q-62.82,35.24-139.43,35.24-105.24,0-165.49-66.4v256.4H3503.51V428.42h152.21v63.34q59.24-71.49,172.64-71.51Q3905,420.25,3967.79,455.49Zm-66.4,358.56q39.32-41.38,39.33-110.84t-39.33-110.83Q3862.06,551,3800.77,551t-100.62,41.37q-39.33,41.37-39.32,110.83t39.32,110.84q39.32,41.37,100.62,41.37T3901.39,814.05Z"/><path class="cls-6" d="M4293.64,949.91q-69-36.25-107.77-100.62t-38.81-146.08q0-81.71,38.81-146.08t107.77-100.61q69-36.25,155.78-36.27t155.27,36.27q68.43,36.27,107.26,100.61t38.82,146.08q0,81.74-38.82,146.08T4604.69,949.91q-68.44,36.27-155.27,36.26T4293.64,949.91ZM4550,814.05q39.31-41.38,39.33-110.84T4550,592.38Q4510.71,551,4449.42,551t-101.13,41.37q-39.84,41.37-39.84,110.83t39.84,110.84q39.84,41.37,101.13,41.37T4550,814.05Z"/><path class="cls-7" d="M118.14,444s77.2,16.47,142.76,145.15c61.85,121.43,40.54,268.25,269.52,294.37,205.22,34,384.87-89.78,384.87-89.78s-198.14,77.4-350.49-47C403.65,615,415.08,404.33,118.14,444Z"/><path class="cls-8" d="M1184.43,435.56C1157.4,724.76,914,951.2,617.64,951.2a568.69,568.69,0,0,1-178.83-28.65c32.87,31.41,83.74,62.62,143.75,86a103.89,103.89,0,0,1,21.55-20.64c15.35-10.87,32.71-16.62,50.2-16.62h0a75.14,75.14,0,0,1,40.83,11.95c20.57,13.21,33.86,35.56,37,61.86a473.51,473.51,0,0,0,89.1,1,110.8,110.8,0,0,1,6.41-19.1,112.75,112.75,0,0,1,6.25-12.15l0-.07,0-.06c18-30.15,48.7-48.89,80.06-48.89h0a75.45,75.45,0,0,1,42.15,12.73l.06,0,.06,0A78.66,78.66,0,0,1,976.76,999c138-75.15,237.5-229,237.5-400.87A454.58,454.58,0,0,0,1184.43,435.56Z"/><path class="cls-9" d="M914,1002.11a48.07,48.07,0,0,1,27,8.12c11.16,7.56,18.68,19.15,22.11,32.7,4.56,18.31,1.63,40.09-9.77,59.15-13.59,22.73-35.63,35.63-56.71,35.63a48.12,48.12,0,0,1-27-8.12c-24.11-16.1-30.84-51.53-17.11-82.54a85.79,85.79,0,0,1,4.77-9.3c13.59-22.74,35.63-35.64,56.71-35.64"/><path class="cls-10" d="M654.49,1002.11a48.09,48.09,0,0,1,27,8.12c11.16,7.56,18.68,19.15,22.11,32.7,4.56,18.31,1.63,40.09-9.77,59.15-13.59,22.73-35.63,35.63-56.71,35.63a48.07,48.07,0,0,1-27-8.12c-24.12-16.1-30.85-51.53-17.11-82.54a84,84,0,0,1,4.77-9.3c13.59-22.74,35.63-35.64,56.71-35.64"/><path class="cls-11" d="M512.64,545.57l-16.82,7.8c18.29,43.62,33.35,110.46,89.28,103.1,162.85,196.14,455.37,114.44,526-150.71,0,0-45.85,60-102.55,65.78-8.39,21.4-38.94,60.63-63.7,82.35-90.35,82.25-237.59,75.8-323.33-15.12,34.69-38.16,3.4-98.27-11.74-138.24l-16.82,7.8-27.82-68.74c-2.85-7-10.38-10.32-16.82-7.33s-9.35,11.11-6.51,18.15l27.82,68.74L536,534.75,508.15,466c-2.85-7-10.38-10.32-16.82-7.33s-9.35,11.11-6.51,18.15Z"/><path class="cls-12" d="M1082.17,371.83,1099,364c-18.29-43.62-33.36-110.46-89.28-103.1-162.85-196.14-455.38-114.44-526,150.71,0,0,38.95-42.89,95.65-48.72,8-33.33,45.84-77.69,70.6-99.41,90.34-82.25,237.59-75.8,323.33,15.12-34.69,38.16-3.4,98.27,11.74,138.24l16.82-7.8,27.82,68.74c2.85,7,10.38,10.32,16.82,7.33S1055.86,474,1053,467l-27.81-68.74,33.64-15.6,27.82,68.74c2.85,7,10.38,10.32,16.82,7.33s9.35-11.11,6.5-18.15Z"/></svg>