<svg id="Layer_1" data-name="Layer 1" xmlns="http://www.w3.org/2000/svg" xmlns:xlink="http://www.w3.org/1999/xlink" viewBox="0 0 4147.96 1288.2"><defs><style>.cls-1{fill:url(#linear-gradient);}.cls-2{fill:url(#linear-gradient-2);}.cls-3{fill:url(#linear-gradient-3);}.cls-4{fill:url(#linear-gradient-4);}.cls-5{fill:url(#linear-gradient-5);}.cls-6{fill:url(#linear-gradient-6);}.cls-7{fill:url(#linear-gradient-7);}.cls-8{fill:url(#linear-gradient-8);}.cls-9{fill:url(#linear-gradient-9);}.cls-10{fill:url(#linear-gradient-10);}.cls-11{fill:url(#linear-gradient-11);}.cls-12{fill:url(#linear-gradient-12);}</style><linearGradient id="linear-gradient" x1="3186.23" y1="-306.71" x2="138.94" y2="777.72" gradientUnits="userSpaceOnUse"><stop offset="0" stop-color="#15733b"/><stop offset="0.5" stop-color="#57b748"/><stop offset="1" stop-color="#a0cb3a"/></linearGradient><linearGradient id="linear-gradient-2" x1="3259.55" y1="-100.69" x2="212.26" y2="983.73" xlink:href="#linear-gradient"/><linearGradient id="linear-gradient-3" x1="3279.46" y1="-44.74" x2="232.17" y2="1039.69" xlink:href="#linear-gradient"/><linearGradient id="linear-gradient-4" x1="3348.81" y1="150.14" x2="301.52" y2="1234.56" xlink:href="#linear-gradient"/><linearGradient id="linear-gradient-5" x1="3410.86" y1="324.5" x2="363.57" y2="1408.92" xlink:href="#linear-gradient"/><linearGradient id="linear-gradient-6" x1="3466.72" y1="481.48" x2="419.43" y2="1565.91" xlink:href="#linear-gradient"/><linearGradient id="linear-gradient-7" x1="3649.97" y1="704.54" x2="2965.33" y2="673.63" xlink:href="#linear-gradient"/><linearGradient id="linear-gradient-8" x1="4184.48" y1="783.99" x2="3729.53" y2="770.74" xlink:href="#linear-gradient"/><linearGradient id="linear-gradient-9" x1="4172.91" y1="1181.47" x2="3717.95" y2="1168.22" xlink:href="#linear-gradient"/><linearGradient id="linear-gradient-10" x1="4172.64" y1="1190.57" x2="3717.69" y2="1177.31" xlink:href="#linear-gradient"/><linearGradient id="linear-gradient-11" x1="4086.39" y1="238.65" x2="3432.67" y2="631.76" xlink:href="#linear-gradient"/><linearGradient id="linear-gradient-12" x1="4017.61" y1="158.57" x2="3633.32" y2="288.88" xlink:href="#linear-gradient"/></defs><path class="cls-1" d="M547.69,905.63v112.31H79.45V413.2h457V525.51H218.54V656.83H499.31V765.68H218.54v140Z"/><path class="cls-2" d="M1084.17,376.92v641H955.45V964.38q-50.12,60.48-145.14,60.47-65.67,0-118.79-29.37t-83.36-83.8q-30.25-54.42-30.24-126.13t30.24-126.13q30.23-54.43,83.36-83.8t118.79-29.37q89,0,139.09,56.15V376.92ZM918.3,879.28Q952,844.3,952,785.55T918.3,691.81q-33.69-35-84.66-35-51.84,0-85.53,35t-33.69,93.74q0,58.76,33.69,93.73t85.53,35Q884.6,914.27,918.3,879.28Z"/><path class="cls-3" d="M1163.64,466.77q-23.33-21.58-23.33-53.57t23.33-53.56q23.33-21.58,60.47-21.6t60.47,20.74q23.33,20.73,23.33,51.83,0,33.69-23.33,55.72t-60.47,22Q1187,488.36,1163.64,466.77Zm-6.91,86.39H1291.5v464.78H1156.73Z"/><path class="cls-4" d="M1435.76,1010.6q-55.29-14.26-88.11-35.86L1392.57,878q31.1,19.88,75.16,32.39a314.61,314.61,0,0,0,86.39,12.53q85.53,0,85.53-42.33,0-19.86-23.33-28.51t-71.7-14.69q-57-8.62-94.17-19.87a145.86,145.86,0,0,1-64.36-39.74q-27.21-28.5-27.21-81.2,0-44.07,25.48-78.19t74.3-53.13q48.79-19,115.33-19a452.55,452.55,0,0,1,98,10.8q48.81,10.8,80.78,29.8l-44.92,95.89q-61.37-34.53-133.91-34.55-43.21,0-64.79,12.09t-21.6,31.1q0,21.61,23.32,30.24t74.3,16.41q57,9.53,93.3,20.31t63.07,39.3q26.76,28.51,26.78,79.48,0,43.21-25.92,76.89t-75.59,52.27q-49.69,18.57-117.92,18.57A451.62,451.62,0,0,1,1435.76,1010.6Z"/><path class="cls-5" d="M2205.07,576.05q53.13,29.81,83.37,83.8t30.23,125.7q0,71.72-30.23,125.7t-83.37,83.8q-53.13,29.81-117.93,29.8-89,0-139.95-56.15v216.84H1812.42V553.16h128.72v53.56q50.1-60.47,146-60.47Q2151.94,546.25,2205.07,576.05Zm-56.16,303.23q33.26-35,33.26-93.73t-33.26-93.74q-33.26-35-85.09-35t-85.1,35q-33.26,35-33.26,93.74t33.26,93.73q33.26,35,85.1,35T2148.91,879.28Z"/><path class="cls-6" d="M2480.64,994.18q-58.3-30.64-91.14-85.09t-32.83-123.54q0-69.1,32.83-123.54t91.14-85.1q58.32-30.64,131.75-30.66t131.31,30.66q57.87,30.69,90.71,85.1t32.83,123.54q0,69.12-32.83,123.54t-90.71,85.09q-57.88,30.68-131.31,30.67T2480.64,994.18Zm216.85-114.9q33.24-35,33.26-93.73t-33.26-93.74q-33.27-35-85.1-35t-85.53,35q-33.69,35-33.69,93.74t33.69,93.73q33.69,35,85.53,35T2697.49,879.28Z"/><path class="cls-7" d="M2771.67,414.7s92.94,19.83,171.88,174.76C3018,735.65,2992.36,912.41,3268,943.86c247.08,40.94,463.36-108.09,463.36-108.09s-238.55,93.18-422-56.62C3115.41,620.51,3129.18,366.94,2771.67,414.7Z"/><path class="cls-8" d="M4055.43,404.54c-32.54,348.18-325.58,620.81-682.39,620.81a684.73,684.73,0,0,1-215.3-34.5c39.58,37.82,100.82,75.39,173.07,103.57a125.41,125.41,0,0,1,25.94-24.84c18.49-13.09,39.39-20,60.44-20h0a90.41,90.41,0,0,1,49.15,14.39c24.77,15.9,40.77,42.81,44.52,74.47a571,571,0,0,0,107.26,1.17,131.4,131.4,0,0,1,7.73-23,134.24,134.24,0,0,1,7.51-14.64l.05-.08,0-.07c21.7-36.31,58.63-58.86,96.39-58.86h0a90.91,90.91,0,0,1,50.74,15.32l.07,0,.08.05a94.83,94.83,0,0,1,24.67,24.54c166.15-90.46,285.94-275.71,285.94-482.61A547.3,547.3,0,0,0,4055.43,404.54Z"/><path class="cls-9" d="M3729.85,1086.63a57.88,57.88,0,0,1,32.52,9.79c13.43,9.09,22.49,23,26.61,39.36,5.49,22,2,48.27-11.76,71.21-16.36,27.37-42.9,42.91-68.27,42.91a57.86,57.86,0,0,1-32.52-9.79c-29-19.38-37.14-62-20.6-99.37a101.09,101.09,0,0,1,5.75-11.2c16.35-27.37,42.89-42.91,68.27-42.91"/><path class="cls-10" d="M3417.41,1086.63a57.86,57.86,0,0,1,32.52,9.79c13.43,9.09,22.49,23,26.61,39.36,5.49,22,2,48.27-11.76,71.21-16.36,27.37-42.9,42.91-68.27,42.91a57.86,57.86,0,0,1-32.52-9.79c-29-19.38-37.13-62-20.6-99.37a102.83,102.83,0,0,1,5.75-11.2c16.36-27.37,42.89-42.91,68.27-42.91"/><path class="cls-11" d="M3246.63,537l-20.25,9.4c22,52.52,40.16,133,107.48,124.13,196.07,236.14,548.25,137.78,633.25-181.46,0,0-55.19,72.18-123.46,79.2-10.1,25.76-46.87,73-76.69,99.15-108.77,99-286,91.26-389.27-18.2,41.77-46,4.09-118.32-14.13-166.44l-20.26,9.39-33.49-82.76c-3.43-8.47-12.49-12.42-20.25-8.82s-11.26,13.38-7.83,21.85l33.49,82.76L3274.72,524l-33.5-82.76c-3.42-8.47-12.49-12.42-20.24-8.83s-11.26,13.38-7.84,21.85Z"/><path class="cls-12" d="M3932.31,327.82l20.25-9.4c-22-52.52-40.15-133-107.48-124.13C3649-41.85,3296.83,56.51,3211.83,375.75c0,0,46.89-51.64,115.15-58.66,9.61-40.13,55.19-93.54,85-119.69,108.77-99,286-91.26,389.28,18.2-41.77,46-4.1,118.32,14.13,166.44l20.25-9.39,33.49,82.76c3.43,8.47,12.49,12.42,20.25,8.82s11.26-13.38,7.83-21.85l-33.49-82.76,40.51-18.78,33.49,82.76c3.43,8.47,12.49,12.42,20.25,8.83s11.26-13.38,7.83-21.85Z"/></svg>