<svg id="Layer_1" data-name="Layer 1" xmlns="http://www.w3.org/2000/svg" xmlns:xlink="http://www.w3.org/1999/xlink" viewBox="0 0 4616.97 1288.2"><defs><style>.cls-1{fill:#6ebd44;}.cls-2{isolation:isolate;}.cls-3{fill:url(#linear-gradient);}.cls-4{fill:url(#linear-gradient-2);}.cls-5{fill:url(#linear-gradient-3);}.cls-6{fill:url(#linear-gradient-4);}.cls-7{fill:url(#linear-gradient-5);}.cls-8{fill:url(#linear-gradient-6);}</style><linearGradient id="linear-gradient" x1="1049.67" y1="634.66" x2="457.21" y2="689.52" gradientUnits="userSpaceOnUse"><stop offset="0" stop-color="#15733b"/><stop offset="0.5" stop-color="#57b748"/><stop offset="1" stop-color="#a0cb3a"/></linearGradient><linearGradient id="linear-gradient-2" x1="1140.63" y1="-60.38" x2="1099.49" y2="449.79" xlink:href="#linear-gradient"/><linearGradient id="linear-gradient-3" x1="1078.48" y1="426.54" x2="1071.17" y2="711.8" xlink:href="#linear-gradient"/><linearGradient id="linear-gradient-4" x1="1146.01" y1="895.69" x2="1131.38" y2="1138.89" xlink:href="#linear-gradient"/><linearGradient id="linear-gradient-5" x1="900.9" y1="880.95" x2="886.27" y2="1124.15" xlink:href="#linear-gradient"/><linearGradient id="linear-gradient-6" x1="1720.1" y1="762.47" x2="1156.9" y2="722.24" xlink:href="#linear-gradient"/></defs><path class="cls-1" d="M2058.86,705.27v95.32H1661.47V287.36h387.86v95.31H1779.52V494.12H2017.8V586.5H1779.52V705.27Z"/><path class="cls-1" d="M2113.11,287.36h233.16q83.58,0,147.73,31.89t99.72,89.82Q2629.27,467,2629.28,544t-35.56,134.91q-35.58,57.93-99.72,89.82t-147.73,31.89H2113.11ZM2340.4,703.07q77,0,122.81-42.89T2509,544q0-73.31-45.82-116.21T2340.4,384.87H2231.89v318.2Z"/><path class="cls-1" d="M2683.52,287.36H2802.3V800.59H2683.52Z"/><path class="cls-1" d="M2946.36,792.89q-56.82-16.5-91.28-42.89l40.33-89.45q33,24.19,78.45,38.86a294.46,294.46,0,0,0,90.91,14.66q50.59,0,74.79-15t24.2-40q0-18.32-14.3-30.42t-36.66-19.43q-22.38-7.32-60.49-16.13-58.67-13.92-96-27.87a155.84,155.84,0,0,1-64.15-44.72q-26.78-30.79-26.76-82.12,0-44.72,24.19-81t72.95-57.56q48.77-21.26,119.15-21.26a395.15,395.15,0,0,1,96.05,11.73Q3224.6,302,3259.8,324l-36.66,90.18q-71.11-40.32-142.23-40.33-49.87,0-73.69,16.13t-23.83,42.53q0,26.39,27.49,39.22t84,25.3q58.65,13.93,96,27.86a159.15,159.15,0,0,1,64.16,44q26.76,30.08,26.76,81.39a140.19,140.19,0,0,1-24.56,80.28q-24.57,36.3-73.69,57.55T3064,809.39A419.81,419.81,0,0,1,2946.36,792.89Z"/><path class="cls-1" d="M3673.68,310.08q50.21,22.74,77.35,64.53t27.13,99q0,56.46-27.13,98.61t-77.35,64.52q-50.23,22.38-118.41,22.36H3451.89V800.59H3333.11V287.36h222.16Q3623.46,287.36,3673.68,310.08Zm-43.63,229.13q27.85-23.1,27.87-65.62,0-43.26-27.87-66.36t-81.38-23.09h-96.78V562.3h96.78Q3602.18,562.3,3630.05,539.21Z"/><path class="cls-1" d="M3934,774.93q-64.17-34.45-100.45-94.95t-36.29-136q0-75.51,36.29-136T3934,313q64.14-34.45,144.07-34.46T4221.74,313q63.78,34.47,100.44,95t36.66,136q0,75.53-36.66,136t-100.44,94.95q-63.8,34.47-143.71,34.46T3934,774.93Zm226.19-87.62A150,150,0,0,0,4217.7,629q20.9-37.39,20.9-85t-20.9-85.05a150,150,0,0,0-57.55-58.29q-36.67-20.89-82.12-20.89t-82.12,20.89a149.92,149.92,0,0,0-57.55,58.29q-20.9,37.4-20.9,85.05t20.9,85a149.92,149.92,0,0,0,57.55,58.29q36.66,20.9,82.12,20.9T4160.15,687.31Z"/><g class="cls-2"><path class="cls-1" d="M1943.52,924.88Q1964,944,1964,982.23v100h-43.34V987.46q0-22.86-10.75-34.48T1879,941.38q-21.84,0-35,13.57t-13.17,38.72v88.57H1787.5V987.46q0-22.86-10.75-34.48t-30.86-11.6q-22.19,0-35.19,13.4t-13,38.89v88.57h-43.34V907.72h41.26v22.22a67.29,67.29,0,0,1,26-18,93,93,0,0,1,34.67-6.21q20.81,0,36.93,7.35a58.85,58.85,0,0,1,25.48,21.74,76.78,76.78,0,0,1,29.47-21.41,100.74,100.74,0,0,1,39.88-7.68Q1923.06,905.76,1943.52,924.88Z"/><path class="cls-1" d="M2053.77,1073.09a86.35,86.35,0,0,1-35.19-31.87q-12.66-20.42-12.66-46.24t12.66-46.08q12.64-20.26,35.19-31.7t50.62-11.44q28.43,0,51,11.44t35.19,31.7q12.66,20.26,12.66,46.08t-12.66,46.24a86.48,86.48,0,0,1-35.19,31.87q-22.55,11.45-51,11.44Q2076.31,1084.53,2053.77,1073.09Zm90.15-38.57q15.6-15,15.6-39.54t-15.6-39.54q-15.6-15-39.53-15t-39.35,15q-15.43,15-15.43,39.54t15.43,39.54q15.42,15,39.35,15T2143.92,1034.52Z"/><path class="cls-1" d="M2501.72,925q21.15,19.29,21.15,57.19v100h-43.34V987.46q0-22.86-11.44-34.48t-32.59-11.6q-23.92,0-37.79,13.57t-13.87,39v88.24H2340.5V907.72h41.26v22.55a67.69,67.69,0,0,1,27-18.3q16.29-6.21,36.75-6.21Q2480.57,905.76,2501.72,925Z"/><path class="cls-1" d="M2711.31,924.22Q2733,942.7,2733,980v102.29h-40.91V1061q-8,11.45-22.71,17.48t-35.54,6q-20.81,0-36.4-6.7t-24.1-18.63a45.3,45.3,0,0,1-8.5-27q0-23.54,18.55-37.75t58.43-14.22h47.84v-2.61q0-18.3-11.61-28.11t-34.5-9.8a105.55,105.55,0,0,0-30.69,4.57,77.38,77.38,0,0,0-25.48,12.75l-17-29.74q14.57-10.46,35-16a164.44,164.44,0,0,1,43.34-5.56Q2689.64,905.76,2711.31,924.22Zm-39.52,123.54a38.84,38.84,0,0,0,17.85-20.1V1007.4h-44.72q-37.46,0-37.45,23.2,0,11.12,9.36,17.65t26,6.54Q2659.13,1054.79,2671.79,1047.76Z"/><path class="cls-1" d="M3057.5,907.72l-86.68,188.57q-12.14,28.44-29.47,40t-41.95,11.6a90.91,90.91,0,0,1-27.39-4.25q-13.52-4.25-22.19-11.76l17.34-30.07a49.56,49.56,0,0,0,31.89,12.09q11.44,0,18.9-5.56t13.7-18.62l3.12-6.87L2854,907.72h45.07l58.25,129.09,58.6-129.09Z"/><path class="cls-1" d="M3212,924.22q21.67,18.48,21.67,55.73v102.29h-40.91V1061q-8,11.45-22.71,17.48t-35.54,6q-20.8,0-36.4-6.7T3074,1059.2a45.3,45.3,0,0,1-8.5-27q0-23.54,18.55-37.75t58.43-14.22h47.84v-2.61q0-18.3-11.61-28.11t-34.5-9.8a105.44,105.44,0,0,0-30.68,4.57A77.33,77.33,0,0,0,3088,957.07l-17-29.74q14.57-10.46,35-16a164.5,164.5,0,0,1,43.34-5.56Q3190.29,905.76,3212,924.22Zm-39.52,123.54a38.84,38.84,0,0,0,17.85-20.1V1007.4h-44.72q-37.46,0-37.45,23.2,0,11.12,9.36,17.65t26,6.54Q3159.78,1054.79,3172.44,1047.76Z"/><path class="cls-1" d="M3450.33,925q21.15,19.29,21.15,57.19v100h-43.34V987.46q0-22.86-11.44-34.48t-32.59-11.6q-23.93,0-37.8,13.57t-13.86,39v88.24h-43.34V907.72h41.26v22.55a67.69,67.69,0,0,1,27-18.3q16.29-6.21,36.75-6.21Q3429.19,905.76,3450.33,925Z"/><path class="cls-1" d="M3559.2,845q8,7.53,8,19.28a42.06,42.06,0,0,1-1.56,11.44,175.71,175.71,0,0,1-6.07,16.67l-18,46.41h-28.08l13.86-50.33a23.08,23.08,0,0,1-12-9,26.36,26.36,0,0,1-4.33-15.2q0-11.76,8-19.28t20.11-7.51Q3551.22,837.46,3559.2,845Z"/></g><path class="cls-3" d="M352.12,440.45s82.08,17.22,152.45,155.34C570.94,726.06,572.48,867,792.69,903.49s386.59-82.79,386.59-82.79-152,72.46-315.37-61C691,618.3,745.3,369.84,352.12,440.45Z"/><path class="cls-4" d="M1407.21,407.52l-16.34,6.55-19-47-22,8.87-10.64,4.31,19,47-16.34,6.55-19-47-8.17,3.24-16.41-40.85a43.56,43.56,0,0,1,.38-33.68,44.15,44.15,0,0,1,12-16.27h0a267.17,267.17,0,0,0-215.36-108.83c-130.49,0-239.09,93.42-262.68,217.05h-.77v.31l-34.45,13.87c17.88-146.6,142.74-260.21,294.2-260.21A295.92,295.92,0,0,1,1335.22,288.9,44.06,44.06,0,0,1,1380,316.33l16.42,40.86-8.25,3.31Z"/><path class="cls-5" d="M1387.56,476.19c-.16,3.24-.47,6.48-.78,9.72-14.1,150.61-140.89,268.38-295.13,268.38-110.22,0-206.41-60.2-257.52-149.53a43.88,43.88,0,0,1-40.38-27.59l-16.42-40.85,8.25-3.32-19-47L783,479.43l19,47,32.6-13.1-19-47,16.34-6.55,19,47,8.17-3.23,16.42,40.85a43.56,43.56,0,0,1-.39,33.68A45.41,45.41,0,0,1,864.5,593.2a267.23,267.23,0,0,0,230.85,132.27c138,0,251.51-104.45,265.92-238.56h0Z"/><path class="cls-6" d="M1185.05,1102.51c-13,31.83-45.94,48.41-73.69,37-25.13-10.33-37.38-40.16-29.75-69.37a78.61,78.61,0,0,1,2.93-8.87c13-31.83,45.93-48.4,73.68-37a50.24,50.24,0,0,1,26.06,25.12C1191.67,1064.67,1192.52,1084.17,1185.05,1102.51Z"/><path class="cls-7" d="M938.86,1105.6c-13,31.84-45.94,48.41-73.69,37s-39.69-46.4-26.74-78.31a68.23,68.23,0,0,1,17.49-25.13c15.8-14.33,37.23-19.57,56.19-11.79,15.57,6.4,26.13,20.19,30.14,36.77A68.07,68.07,0,0,1,938.86,1105.6Z"/><path class="cls-8" d="M1492.82,397.63c-29,310.39-290.2,553.26-608.15,553.26a610,610,0,0,1-191.84-30.75A488.5,488.5,0,0,0,842.14,1021c21.36-21,51.38-29.12,77.85-18.23,15.7,6.5,27.68,18.58,34.9,33.66a79.35,79.35,0,0,1,6.32,18.87,495,495,0,0,0,74.84,5.71q14.43,0,28.65-.81c.81-2.63,1.74-5.27,2.76-7.87,17.35-42.65,61.54-64.85,98.72-49.56a66.84,66.84,0,0,1,33.12,30.22c189.65-67.15,325.58-248.16,325.58-460.89A486.21,486.21,0,0,0,1492.82,397.63Z"/></svg>